<svg width="25" height="24" viewBox="0 0 25 24" fill="none" xmlns="http://www.w3.org/2000/svg">
<path d="M8.23301 20C10.1416 20.9791 12.3371 21.2442 14.4239 20.7478C16.5107 20.2513 18.3516 19.0258 19.6148 17.2922C20.878 15.5585 21.4804 13.4307 21.3136 11.2922C21.1468 9.15361 20.2216 7.14497 18.7048 5.62819C17.188 4.11142 15.1794 3.18625 13.0408 3.01942C10.9023 2.85258 8.77448 3.45505 7.04083 4.71825C5.30718 5.98145 4.0817 7.82231 3.58523 9.90911C3.08876 11.9959 3.35395 14.1914 4.33301 16.1L2.33301 22L8.23301 20Z" stroke="#A0A0A0" stroke-width="2" stroke-linecap="round" stroke-linejoin="round"/>
<path d="M8.33301 12H8.34301" stroke="#A0A0A0" stroke-width="2" stroke-linecap="round" stroke-linejoin="round"/>
<path d="M12.333 12H12.343" stroke="#A0A0A0" stroke-width="2" stroke-linecap="round" stroke-linejoin="round"/>
<path d="M16.333 12H16.343" stroke="#A0A0A0" stroke-width="2" stroke-linecap="round" stroke-linejoin="round"/>
</svg>
