<svg width="19" height="20" viewBox="0 0 19 20" fill="none" xmlns="http://www.w3.org/2000/svg">
<rect y="0.5" width="19" height="19" rx="9.5" fill="#C2F693"/>
<g clip-path="url(#clip0_1194_30582)">
<path d="M14.9255 8.8944C15.1783 10.1354 14.9981 11.4256 14.4149 12.5498C13.8316 13.6741 12.8806 14.5644 11.7204 15.0722C10.5601 15.5801 9.26088 15.6749 8.03923 15.3408C6.81758 15.0067 5.74739 14.2639 5.00714 13.2362C4.26688 12.2086 3.90131 10.9582 3.97137 9.69361C4.04144 8.42903 4.54292 7.2267 5.39217 6.28711C6.24142 5.34752 7.38712 4.72747 8.63821 4.53037C9.88929 4.33326 11.1701 4.57101 12.2671 5.20397" stroke="#324D19" stroke-width="1.5" stroke-linecap="round" stroke-linejoin="round"/>
<path d="M7.81494 9.61463L9.48161 11.2035L15.0372 5.90723" stroke="#324D19" stroke-width="1.5" stroke-linecap="round" stroke-linejoin="round"/>
</g>
<defs>
<clipPath id="clip0_1194_30582">
<rect width="13" height="13" fill="white" transform="translate(3 3.5)"/>
</clipPath>
</defs>
</svg>
