<svg width="24" height="24" viewBox="0 0 24 24" fill="none" xmlns="http://www.w3.org/2000/svg">
<path d="M21.4403 11.0499L12.2503 20.2399C11.1244 21.3658 9.59747 21.9982 8.00529 21.9982C6.41311 21.9982 4.88613 21.3658 3.76029 20.2399C2.63445 19.1141 2.00195 17.5871 2.00195 15.9949C2.00195 14.4027 2.63445 12.8758 3.76029 11.7499L12.3303 3.17991C13.0809 2.42802 14.0994 2.00509 15.1618 2.00415C16.2241 2.00321 17.2434 2.42435 17.9953 3.17491C18.7472 3.92547 19.1701 4.94398 19.171 6.00638C19.172 7.06877 18.7509 8.08802 18.0003 8.83991L9.41029 17.4099C9.03501 17.7852 8.52602 17.996 7.99529 17.996C7.46456 17.996 6.95557 17.7852 6.58029 17.4099C6.20501 17.0346 5.99418 16.5256 5.99418 15.9949C5.99418 15.4642 6.20501 14.9552 6.58029 14.5799L15.0703 6.09991" stroke="#324D19" stroke-width="1.5" stroke-linecap="round" stroke-linejoin="round"/>
</svg>
