<svg width="103" height="45" viewBox="0 0 103 45" fill="none" xmlns="http://www.w3.org/2000/svg">
<path d="M80.828 17.586C78.833 17.586 78.378 16.557 78.378 15.717V15.535C78.378 14.73 78.791 13.673 80.828 13.673H81.129C83.159 13.673 83.551 14.737 83.551 15.521V15.717C83.551 16.55 82.977 17.586 81.115 17.586H80.828ZM79.022 15.64C79.022 16.284 79.176 17.075 80.961 17.075H80.996C82.732 17.075 82.921 16.263 82.921 15.619V15.577C82.921 14.982 82.739 14.184 81.003 14.184H80.961C79.183 14.184 79.022 14.926 79.022 15.605V15.64ZM81.192 15.465C81.36 15.465 81.409 15.381 81.409 15.276C81.409 15.171 81.36 15.087 81.192 15.087H80.611V15.465H81.192ZM80.611 16.613H79.694V14.604H81.479C82.13 14.604 82.312 14.849 82.312 15.108V15.129C82.312 15.402 82.109 15.542 81.864 15.591C82.179 15.64 82.34 15.794 82.34 16.039V16.375C82.34 16.487 82.354 16.529 82.389 16.578V16.613H81.465C81.437 16.578 81.409 16.55 81.409 16.445V16.242C81.409 16.067 81.36 15.983 81.171 15.983H80.611V16.613Z" fill="#324D19"/>
<path d="M22.1681 32H14.2381V12.656H22.1681V32ZM31.992 21.6V32H24.244V12.656H32.304L42.236 22.562V12.656H49.984V32H42.418L31.992 21.6ZM60.0042 26.462V32H52.0742V12.656H66.7382C74.5642 12.656 76.4362 15.36 76.4362 19.234V19.598C76.4362 23.576 74.4602 26.462 66.7382 26.462H60.0042ZM60.0042 21.158H65.9582C67.8302 21.158 68.1942 20.352 68.1942 19.546V19.494C68.1942 18.792 67.8302 17.96 65.9582 17.96H60.0042V21.158ZM82.2634 32H74.2814V25.786H82.2634V32Z" fill="#324D19"/>
<path d="M15.192 11H14.368V8.024H15.192V11ZM16.4106 9.072V11H15.6066V8.024H16.4546L18.1946 9.94V8.024H18.9946V11H18.1866L16.4106 9.072ZM20.2356 10.048V11H19.4116V8.024H21.4276C22.3676 8.024 22.6596 8.436 22.6596 9.012V9.056C22.6596 9.62 22.3556 10.048 21.4276 10.048H20.2356ZM20.2356 9.384H21.3676C21.6716 9.384 21.8036 9.256 21.8036 9.044V9.028C21.8036 8.82 21.6716 8.688 21.3676 8.688H20.2356V9.384ZM24.7478 7.976C26.1398 7.976 26.5358 8.792 26.5358 9.444V9.564C26.5358 10.204 26.1398 11.048 24.7478 11.048H24.5718C23.1798 11.048 22.7838 10.204 22.7838 9.564V9.444C22.7838 8.796 23.1798 7.976 24.5718 7.976H24.7478ZM25.6798 9.476C25.6798 9.108 25.4998 8.656 24.6598 8.656C23.8278 8.656 23.6398 9.108 23.6398 9.476V9.532C23.6398 9.892 23.8398 10.364 24.6598 10.364C25.4958 10.364 25.6798 9.892 25.6798 9.532V9.476ZM28.2545 11.052C26.8585 11.052 26.6985 10.42 26.6985 10.064V10.02H27.5945C27.6065 10.152 27.6625 10.448 28.2945 10.448H28.3225C28.9425 10.448 29.0225 10.264 29.0225 10.092C29.0225 9.912 28.9065 9.804 28.4145 9.784L28.0185 9.772C27.0425 9.74 26.7305 9.352 26.7305 8.904V8.868C26.7305 8.404 26.9785 7.988 28.2105 7.988H28.3465C29.6625 7.988 29.8425 8.468 29.8425 8.86V8.904H28.9585C28.9385 8.772 28.8665 8.576 28.2905 8.576H28.2505C27.7225 8.576 27.5985 8.676 27.5985 8.84C27.5985 8.992 27.7065 9.104 28.1745 9.124L28.5865 9.14C29.6465 9.184 29.9025 9.528 29.9025 10.012V10.06C29.9025 10.496 29.7025 11.052 28.3705 11.052H28.2545ZM30.1977 8.024H31.0217V9.128H32.6817V8.024H33.5057V11H32.6817V9.804H31.0217V11H30.1977V8.024ZM34.7447 11H33.9207V8.024H34.7447V11ZM36.2233 11L34.8433 8.024H35.8033L36.7713 10.28L37.7433 8.024H38.6393L37.3073 11H36.2233Z" fill="#324D19"/>
<path d="M38.1742 37.044C37.6342 37.044 37.3582 36.8 37.2622 36.704C37.2302 36.8 37.2102 36.904 37.1982 37H36.5262V33.972H37.3062V35.056C37.4062 34.956 37.6702 34.736 38.1862 34.736H38.2382C39.0862 34.736 39.3622 35.312 39.3622 35.844V35.912C39.3622 36.404 39.0782 37.044 38.2302 37.044H38.1742ZM38.5542 35.88C38.5542 35.64 38.4422 35.316 37.9542 35.316H37.9142C37.4462 35.316 37.2982 35.624 37.2982 35.88V35.892C37.2982 36.136 37.4462 36.456 37.9142 36.456H37.9542C38.4422 36.456 38.5542 36.12 38.5542 35.892V35.88ZM39.7139 37.208H40.2019C40.2779 37.208 40.3179 37.176 40.3179 37.116V37.112C40.3179 37.064 40.3059 37.02 40.2459 36.896L39.2939 34.78H40.1499L40.7659 36.372L41.3779 34.78H42.1619L41.1459 37.224C40.9899 37.588 40.7979 37.764 40.4299 37.764H39.7139V37.208ZM43.1178 34.024H45.2898C46.1418 34.024 46.3538 34.396 46.3538 34.728V34.772C46.3538 35.148 46.0298 35.328 45.8058 35.36C46.1418 35.416 46.5018 35.616 46.5018 36.096V36.14C46.5018 36.544 46.2578 37 45.3018 37H43.1178V34.024ZM43.9418 34.644V35.176H45.1698C45.4218 35.176 45.4938 35.056 45.4938 34.916V34.908C45.4938 34.764 45.4138 34.644 45.1698 34.644H43.9418ZM43.9418 35.76V36.348H45.2338C45.5218 36.348 45.6058 36.196 45.6058 36.048V36.032C45.6058 35.884 45.5218 35.76 45.2338 35.76H43.9418ZM48.0068 35.24C47.6028 35.24 47.4508 35.404 47.4108 35.636H48.5868C48.5868 35.472 48.5068 35.24 48.0068 35.24ZM49.4148 36.308C49.4148 36.492 49.2708 37.052 48.1228 37.052H47.9748C46.8788 37.052 46.6068 36.452 46.6068 35.92V35.864C46.6068 35.364 46.8548 34.732 47.9068 34.732H48.0828C49.2188 34.732 49.4228 35.364 49.4228 35.984V36.056H47.4028C47.4348 36.312 47.5988 36.52 48.0748 36.52C48.5268 36.52 48.5828 36.344 48.6028 36.308H49.4148ZM49.645 37V34.78H50.417V35.144C50.469 35.036 50.685 34.732 51.141 34.732H51.165C51.689 34.732 51.921 35.072 51.921 35.592C51.921 35.688 51.921 35.748 51.917 35.844H51.113V35.812C51.113 35.508 51.041 35.34 50.797 35.34C50.553 35.34 50.425 35.532 50.425 35.82V37H49.645ZM53.41 35.316C52.922 35.316 52.81 35.64 52.81 35.88V35.892C52.81 36.12 52.922 36.456 53.41 36.456H53.454C53.918 36.456 54.066 36.136 54.066 35.892V35.88C54.066 35.624 53.918 35.316 53.454 35.316H53.41ZM54.838 33.972V37H54.062V36.712C53.986 36.8 53.734 37.044 53.21 37.044H53.158C52.346 37.044 52.006 36.484 52.006 35.92V35.852C52.006 35.296 52.334 34.736 53.15 34.736H53.198C53.706 34.736 53.962 34.928 54.058 35.016V33.972H54.838ZM55.9687 34.532H55.1727V33.972H55.9687V34.532ZM55.9607 37H55.1807V34.78H55.9607V37ZM57.1783 34.024H59.3503C60.2023 34.024 60.4143 34.396 60.4143 34.728V34.772C60.4143 35.148 60.0903 35.328 59.8663 35.36C60.2023 35.416 60.5623 35.616 60.5623 36.096V36.14C60.5623 36.544 60.3183 37 59.3623 37H57.1783V34.024ZM58.0023 34.644V35.176H59.2303C59.4823 35.176 59.5543 35.056 59.5543 34.916V34.908C59.5543 34.764 59.4743 34.644 59.2303 34.644H58.0023ZM58.0023 35.76V36.348H59.2943C59.5823 36.348 59.6663 36.196 59.6663 36.048V36.032C59.6663 35.884 59.5823 35.76 59.2943 35.76H58.0023ZM62.0672 35.24C61.6632 35.24 61.5112 35.404 61.4712 35.636H62.6472C62.6472 35.472 62.5672 35.24 62.0672 35.24ZM63.4752 36.308C63.4752 36.492 63.3312 37.052 62.1832 37.052H62.0352C60.9392 37.052 60.6672 36.452 60.6672 35.92V35.864C60.6672 35.364 60.9152 34.732 61.9672 34.732H62.1432C63.2792 34.732 63.4832 35.364 63.4832 35.984V36.056H61.4632C61.4952 36.312 61.6592 36.52 62.1352 36.52C62.5872 36.52 62.6432 36.344 62.6632 36.308H63.4752ZM65.0054 35.312C64.5174 35.312 64.4014 35.596 64.4014 35.82V35.832C64.4014 36.052 64.5334 36.34 65.0054 36.34H65.0534C65.5134 36.34 65.6574 36.06 65.6574 35.836V35.82C65.6574 35.584 65.4974 35.312 65.0494 35.312H65.0054ZM64.9934 37.824C63.8414 37.824 63.7214 37.352 63.7214 37.096V37.08H64.5494C64.5814 37.144 64.6294 37.252 65.0374 37.252H65.0814C65.5134 37.252 65.6534 37.052 65.6534 36.784V36.62C65.5694 36.704 65.3454 36.924 64.8014 36.924H64.7454C63.8694 36.924 63.5974 36.332 63.5974 35.856V35.788C63.5974 35.288 63.8974 34.736 64.7334 34.736H64.7774C65.3094 34.736 65.5534 34.924 65.6494 35.008V34.78H66.4254V36.752C66.4254 37.344 66.1134 37.824 65.1294 37.824H64.9934ZM66.7682 37V34.78H67.5402V35.14C67.6322 35.004 67.9002 34.728 68.3842 34.728H68.4162C68.8362 34.728 69.0842 34.92 69.2122 35.172C69.3722 34.956 69.6722 34.728 70.1402 34.728H70.1762C70.8722 34.728 71.1002 35.212 71.1002 35.648V37H70.3202V35.844C70.3202 35.588 70.1882 35.34 69.8322 35.34C69.4882 35.34 69.3242 35.6 69.3242 35.872V37H68.5482V35.844C68.5482 35.588 68.4162 35.34 68.0602 35.34C67.7122 35.34 67.5482 35.6 67.5482 35.872V37H66.7682ZM72.7205 35.24C72.3165 35.24 72.1645 35.404 72.1245 35.636H73.3005C73.3005 35.472 73.2205 35.24 72.7205 35.24ZM74.1285 36.308C74.1285 36.492 73.9845 37.052 72.8365 37.052H72.6885C71.5925 37.052 71.3205 36.452 71.3205 35.92V35.864C71.3205 35.364 71.5685 34.732 72.6205 34.732H72.7965C73.9325 34.732 74.1365 35.364 74.1365 35.984V36.056H72.1165C72.1485 36.312 72.3125 36.52 72.7885 36.52C73.2405 36.52 73.2965 36.344 73.3165 36.308H74.1285ZM74.3587 34.78H75.1307V35.132C75.2307 35.012 75.5227 34.728 76.0307 34.728H76.0707C76.7227 34.728 77.0147 35.164 77.0147 35.56V37H76.2347V35.844C76.2347 35.588 76.0867 35.34 75.7027 35.34C75.3307 35.34 75.1387 35.6 75.1387 35.872V37H74.3587V34.78ZM78.6112 37.06C77.4152 37.06 77.2312 36.332 77.2312 35.928V35.872C77.2312 35.472 77.4152 34.72 78.6072 34.72H78.7392C79.9712 34.72 80.1152 35.476 80.1152 35.868V35.932C80.1152 36.332 79.9712 37.06 78.7352 37.06H78.6112ZM78.6952 36.476C79.1872 36.476 79.3112 36.124 79.3112 35.88C79.3112 35.628 79.1872 35.292 78.6952 35.292H78.6512C78.1392 35.292 78.0352 35.628 78.0352 35.88C78.0352 36.124 78.1392 36.476 78.6512 36.476H78.6952ZM80.0212 34.78H80.8852L81.5092 36.384L82.1372 34.78H82.9292L81.9972 37H81.0052L80.0212 34.78Z" fill="#324D19"/>
</svg>
