<svg width="141" height="140" viewBox="0 0 141 140" fill="none" xmlns="http://www.w3.org/2000/svg">
<path d="M117.166 75.8334C117.166 105 96.7497 119.583 72.483 128.042C71.2123 128.472 69.832 128.452 68.5747 127.983C44.2497 119.583 23.833 105 23.833 75.8334V35C23.833 33.4529 24.4476 31.9692 25.5416 30.8752C26.6355 29.7813 28.1192 29.1667 29.6663 29.1667C41.333 29.1667 55.9163 22.1667 66.0663 13.3C67.3022 12.2442 68.8742 11.6641 70.4997 11.6641C72.1251 11.6641 73.6972 12.2442 74.933 13.3C85.1413 22.225 99.6663 29.1667 111.333 29.1667C112.88 29.1667 114.364 29.7813 115.458 30.8752C116.552 31.9692 117.166 33.4529 117.166 35V75.8334Z" stroke="#324D19" stroke-width="8.5" stroke-linecap="round" stroke-linejoin="round"/>
<path d="M70.5 46.6666V70" stroke="#324D19" stroke-width="8.5" stroke-linecap="round" stroke-linejoin="round"/>
<path d="M70.5 93.3334H70.5583" stroke="#324D19" stroke-width="8.5" stroke-linecap="round" stroke-linejoin="round"/>
</svg>
