<svg width="101" height="81" viewBox="0 0 101 81" fill="none" xmlns="http://www.w3.org/2000/svg">
<rect y="14" width="87" height="53.5385" rx="26.7692" fill="#324D19"/>
<rect x="40.1538" y="20.6923" width="40.1538" height="40.1538" rx="20.0769" fill="#C2F693"/>
<path d="M71.1627 38.5385C71.6721 41.0384 71.3091 43.6373 70.1342 45.902C68.9592 48.1666 67.0435 49.96 64.7063 50.9832C62.3692 52.0063 59.7519 52.1972 57.291 51.5242C54.8301 50.8511 52.6743 49.3548 51.1831 47.2847C49.692 45.2145 48.9555 42.6958 49.0967 40.1484C49.2378 37.601 50.248 35.179 51.9587 33.2863C53.6695 31.3936 55.9774 30.1445 58.4976 29.7475C61.0178 29.3504 63.5979 29.8294 65.8077 31.1044" stroke="#324D19" stroke-width="2.00769" stroke-linecap="round" stroke-linejoin="round"/>
<path d="M56.8845 39.6538L60.2307 43L71.3845 31.8461" stroke="#324D19" stroke-width="2.00769" stroke-linecap="round" stroke-linejoin="round"/>
</svg>
